<svg width="221" height="14" viewBox="0 0 221 14" fill="none" xmlns="http://www.w3.org/2000/svg">
<path d="M8.65918 7.8418C8.59082 8.46615 8.41081 9.02897 8.11914 9.53027C7.82747 10.027 7.41504 10.4189 6.88184 10.7061C6.34863 10.9932 5.68099 11.1367 4.87891 11.1367C4.09961 11.1367 3.41829 10.9476 2.83496 10.5693C2.25163 10.1865 1.79818 9.64876 1.47461 8.95605C1.15104 8.26335 0.989258 7.45443 0.989258 6.5293V5.52441C0.989258 4.59473 1.15104 3.78581 1.47461 3.09766C1.80273 2.40495 2.26758 1.86719 2.86914 1.48438C3.4707 1.10156 4.18164 0.910156 5.00195 0.910156C5.75391 0.910156 6.38965 1.05143 6.90918 1.33398C7.42871 1.61198 7.83203 2.00163 8.11914 2.50293C8.41081 3.00423 8.59082 3.58301 8.65918 4.23926H7.33301C7.23275 3.54199 7.00944 2.99284 6.66309 2.5918C6.32129 2.1862 5.76758 1.9834 5.00195 1.9834C4.41406 1.9834 3.92188 2.13151 3.52539 2.42773C3.12891 2.7194 2.82812 3.12956 2.62305 3.6582C2.42253 4.18685 2.32227 4.80436 2.32227 5.51074V6.5293C2.32227 7.18099 2.41341 7.77572 2.5957 8.31348C2.77799 8.84668 3.05599 9.27279 3.42969 9.5918C3.80794 9.91081 4.29102 10.0703 4.87891 10.0703C5.43945 10.0703 5.88379 9.98145 6.21191 9.80371C6.5446 9.62598 6.79525 9.37077 6.96387 9.03809C7.13704 8.7054 7.26009 8.30664 7.33301 7.8418H8.65918ZM9.92383 7.22656C9.92383 6.51107 10.0605 5.87077 10.334 5.30566C10.6074 4.74056 10.9948 4.29395 11.4961 3.96582C11.9974 3.63314 12.5921 3.4668 13.2803 3.4668C13.9775 3.4668 14.5791 3.63314 15.085 3.96582C15.5908 4.29395 15.9782 4.74056 16.2471 5.30566C16.5205 5.87077 16.6572 6.51107 16.6572 7.22656V7.38379C16.6572 8.09473 16.5205 8.73503 16.2471 9.30469C15.9782 9.86979 15.5908 10.3164 15.085 10.6445C14.5837 10.9727 13.9867 11.1367 13.2939 11.1367C12.6012 11.1367 12.002 10.9727 11.4961 10.6445C10.9948 10.3164 10.6074 9.86979 10.334 9.30469C10.0605 8.73503 9.92383 8.09473 9.92383 7.38379V7.22656ZM11.2021 7.38379C11.2021 7.87142 11.2796 8.32259 11.4346 8.7373C11.5895 9.15202 11.8197 9.4847 12.125 9.73535C12.4349 9.986 12.8245 10.1113 13.2939 10.1113C13.7588 10.1113 14.1439 9.986 14.4492 9.73535C14.7591 9.4847 14.9915 9.15202 15.1465 8.7373C15.3014 8.32259 15.3789 7.87142 15.3789 7.38379V7.22656C15.3789 6.73893 15.3014 6.28776 15.1465 5.87305C14.9915 5.45833 14.7591 5.12565 14.4492 4.875C14.1393 4.61979 13.7497 4.49219 13.2803 4.49219C12.82 4.49219 12.4349 4.61979 12.125 4.875C11.8151 5.12565 11.5827 5.45833 11.4277 5.87305C11.2773 6.28776 11.2021 6.73893 11.2021 7.22656V7.38379ZM19.5283 13.8438H18.25V3.60352H19.4121L19.5283 5.02539V13.8438ZM24.5049 7.38379C24.5049 8.10384 24.3932 8.74642 24.1699 9.31152C23.9466 9.87663 23.6208 10.3232 23.1924 10.6514C22.7686 10.9749 22.2513 11.1367 21.6406 11.1367C21.0072 11.1367 20.4762 11 20.0479 10.7266C19.6195 10.4531 19.2845 10.0658 19.043 9.56445C18.8014 9.05859 18.6442 8.46159 18.5713 7.77344V6.98047C18.6442 6.25586 18.8014 5.63151 19.043 5.10742C19.2891 4.58333 19.624 4.18001 20.0479 3.89746C20.4762 3.61035 21.0003 3.4668 21.6201 3.4668C22.2399 3.4668 22.764 3.62402 23.1924 3.93848C23.6208 4.25293 23.9466 4.69499 24.1699 5.26465C24.3932 5.82975 24.5049 6.48828 24.5049 7.24023V7.38379ZM23.2266 7.24023C23.2266 6.74805 23.1559 6.29688 23.0146 5.88672C22.8779 5.47201 22.6615 5.1416 22.3652 4.89551C22.0736 4.64941 21.6976 4.52637 21.2373 4.52637C20.9229 4.52637 20.6494 4.58105 20.417 4.69043C20.1846 4.7998 19.9863 4.94792 19.8223 5.13477C19.6582 5.31706 19.5238 5.52669 19.4189 5.76367C19.3187 5.99609 19.2435 6.23763 19.1934 6.48828V8.27246C19.2845 8.59147 19.4098 8.89225 19.5693 9.1748C19.7334 9.4528 19.9499 9.67839 20.2188 9.85156C20.4922 10.0247 20.8363 10.1113 21.251 10.1113C21.7067 10.1113 22.0804 9.986 22.3721 9.73535C22.6637 9.4847 22.8779 9.1543 23.0146 8.74414C23.1559 8.32943 23.2266 7.87598 23.2266 7.38379V7.24023ZM30.2471 3.60352H31.6074L28.6406 12.1416C28.5723 12.3239 28.4811 12.5199 28.3672 12.7295C28.2578 12.9437 28.1165 13.1465 27.9434 13.3379C27.7747 13.5293 27.5674 13.6842 27.3213 13.8027C27.0752 13.9258 26.7835 13.9873 26.4463 13.9873C26.3779 13.9873 26.2959 13.9805 26.2002 13.9668C26.1045 13.9531 26.0133 13.9372 25.9268 13.9189C25.8402 13.9053 25.7741 13.8916 25.7285 13.8779V12.8594C25.765 12.8639 25.8219 12.8708 25.8994 12.8799C25.9814 12.889 26.0384 12.8936 26.0703 12.8936C26.4987 12.8936 26.8337 12.8047 27.0752 12.627C27.3167 12.4492 27.5127 12.1325 27.6631 11.6768L28.1895 10.2344L30.2471 3.60352ZM28.6064 9.35254L28.9346 10.6855L28.0186 11.1436L25.3047 3.60352H26.6992L28.6064 9.35254ZM34.0205 11H32.7422V3.60352H33.9863L34.0205 4.76562V11ZM36.3242 4.73145C36.2148 4.70866 36.1123 4.69499 36.0166 4.69043C35.9255 4.68132 35.8206 4.67676 35.7021 4.67676C35.3148 4.67676 34.9867 4.75651 34.7178 4.91602C34.4535 5.07552 34.2484 5.29655 34.1025 5.5791C33.9567 5.8571 33.8656 6.17611 33.8291 6.53613L33.4668 6.74121C33.4668 6.14421 33.5465 5.59961 33.7061 5.10742C33.8656 4.61068 34.1139 4.21419 34.4512 3.91797C34.793 3.61719 35.2305 3.4668 35.7637 3.4668C35.8503 3.4668 35.9528 3.47819 36.0713 3.50098C36.1943 3.51921 36.2786 3.53971 36.3242 3.5625V4.73145ZM38.874 11H37.5957V3.60352H38.874V11ZM37.5 1.63477C37.5 1.43424 37.5615 1.26335 37.6846 1.12207C37.8122 0.980794 37.999 0.910156 38.2451 0.910156C38.4912 0.910156 38.6781 0.980794 38.8057 1.12207C38.9378 1.26335 39.0039 1.43424 39.0039 1.63477C39.0039 1.83073 38.9378 1.99935 38.8057 2.14062C38.6781 2.27734 38.4912 2.3457 38.2451 2.3457C37.999 2.3457 37.8122 2.27734 37.6846 2.14062C37.5615 1.99935 37.5 1.83073 37.5 1.63477ZM46.8447 3.60352V10.8428C46.8447 11.4945 46.7103 12.0505 46.4414 12.5107C46.1771 12.971 45.8079 13.3197 45.334 13.5566C44.8646 13.7982 44.3223 13.9189 43.707 13.9189C43.4518 13.9189 43.151 13.8779 42.8047 13.7959C42.4629 13.7184 42.1257 13.584 41.793 13.3926C41.4648 13.2057 41.1891 12.9528 40.9658 12.6338L41.6289 11.8887C41.9388 12.2624 42.2624 12.5221 42.5996 12.668C42.9414 12.8184 43.2786 12.8936 43.6113 12.8936C44.2083 12.8936 44.6823 12.7227 45.0332 12.3809C45.3887 12.0436 45.5664 11.5514 45.5664 10.9043V5.23047L45.6826 3.60352H46.8447ZM40.5898 7.24023C40.5898 6.48828 40.7083 5.82975 40.9453 5.26465C41.1823 4.69499 41.5195 4.25293 41.957 3.93848C42.3945 3.62402 42.9141 3.4668 43.5156 3.4668C43.9805 3.4668 44.3861 3.54883 44.7324 3.71289C45.0833 3.8724 45.3796 4.10482 45.6211 4.41016C45.8672 4.71549 46.0609 5.08464 46.2021 5.51758C46.348 5.95052 46.4482 6.43815 46.5029 6.98047V7.64355C46.4346 8.35905 46.2819 8.97884 46.0449 9.50293C45.8125 10.0225 45.4867 10.4258 45.0674 10.7129C44.6481 10.9954 44.1263 11.1367 43.502 11.1367C42.9095 11.1367 42.3945 10.9749 41.957 10.6514C41.5241 10.3232 41.1868 9.87663 40.9453 9.31152C40.7083 8.74642 40.5898 8.10384 40.5898 7.38379V7.24023ZM41.8682 7.38379C41.8682 7.87598 41.9342 8.32487 42.0664 8.73047C42.2031 9.13607 42.415 9.46191 42.7021 9.70801C42.9893 9.94954 43.3607 10.0703 43.8164 10.0703C44.2357 10.0703 44.5798 9.98145 44.8486 9.80371C45.1175 9.62598 45.334 9.39128 45.498 9.09961C45.6621 8.80794 45.7897 8.49121 45.8809 8.14941V6.48828C45.8262 6.23763 45.7487 5.99609 45.6484 5.76367C45.5482 5.52669 45.416 5.31706 45.252 5.13477C45.0879 4.94792 44.8874 4.7998 44.6504 4.69043C44.418 4.58105 44.1445 4.52637 43.8301 4.52637C43.3698 4.52637 42.9938 4.64941 42.7021 4.89551C42.415 5.1416 42.2031 5.47201 42.0664 5.88672C41.9342 6.29688 41.8682 6.74805 41.8682 7.24023V7.38379ZM50.0303 11H48.752V0.5H50.0303V11ZM49.1963 6.99414C49.2054 6.31966 49.3353 5.7181 49.5859 5.18945C49.8366 4.65625 50.1852 4.23698 50.6318 3.93164C51.083 3.62174 51.6071 3.4668 52.2041 3.4668C52.6917 3.4668 53.111 3.55794 53.4619 3.74023C53.8174 3.91797 54.0908 4.2028 54.2822 4.59473C54.4782 4.98665 54.5762 5.50618 54.5762 6.15332V11H53.2979V6.13965C53.2979 5.75228 53.2409 5.4401 53.127 5.20312C53.0176 4.96615 52.8535 4.79525 52.6348 4.69043C52.416 4.58105 52.1471 4.52637 51.8281 4.52637C51.5137 4.52637 51.2288 4.59245 50.9736 4.72461C50.7184 4.85677 50.4974 5.03906 50.3105 5.27148C50.1237 5.50391 49.9801 5.77051 49.8799 6.07129C49.7796 6.36751 49.7295 6.68197 49.7295 7.01465L49.1963 6.99414ZM59.5732 4.56738H55.5674V3.60352H59.5732V4.56738ZM58.1924 1.80566V9.16797C58.1924 9.42318 58.2311 9.61458 58.3086 9.74219C58.3861 9.86979 58.4863 9.9541 58.6094 9.99512C58.7324 10.0361 58.8646 10.0566 59.0059 10.0566C59.1107 10.0566 59.2201 10.0475 59.334 10.0293C59.4525 10.0111 59.5391 9.99512 59.5938 9.98145L59.6006 11C59.5003 11.0319 59.3682 11.0615 59.2041 11.0889C59.0446 11.1208 58.8509 11.1367 58.623 11.1367C58.3132 11.1367 58.0283 11.0752 57.7686 10.9521C57.5088 10.8291 57.3014 10.624 57.1465 10.3369C56.9915 10.0452 56.9141 9.65332 56.9141 9.16113V1.80566H58.1924ZM71.208 6.91211C71.208 7.6276 71.0052 8.16536 70.5996 8.52539C70.194 8.88086 69.6426 9.05859 68.9453 9.05859C68.2161 9.05859 67.6374 8.81478 67.209 8.32715C66.7852 7.83496 66.5732 7.19694 66.5732 6.41309V5.62695C66.5732 4.8431 66.7852 4.20736 67.209 3.71973C67.6374 3.22754 68.2161 2.98145 68.9453 2.98145C69.6426 2.98145 70.194 3.15918 70.5996 3.51465C71.0098 3.87012 71.2148 4.4056 71.2148 5.12109H70.2168C70.2168 4.66992 70.1074 4.34635 69.8887 4.15039C69.6745 3.94987 69.36 3.84961 68.9453 3.84961C68.6445 3.84961 68.3916 3.92708 68.1865 4.08203C67.9814 4.23242 67.8265 4.43978 67.7217 4.7041C67.6169 4.96842 67.5645 5.27376 67.5645 5.62012V6.41309C67.5645 6.93717 67.6807 7.36328 67.9131 7.69141C68.1501 8.01953 68.4941 8.18359 68.9453 8.18359C69.36 8.18359 69.6745 8.08789 69.8887 7.89648C70.1029 7.70052 70.21 7.3724 70.21 6.91211H71.208ZM64.9736 6.0166C64.9736 6.62272 65.0785 7.18783 65.2881 7.71191C65.4977 8.236 65.7894 8.69401 66.1631 9.08594C66.5368 9.47786 66.9674 9.7832 67.4551 10.002C67.9473 10.2207 68.4736 10.3301 69.0342 10.3301C69.5947 10.3301 70.1188 10.2207 70.6064 10.002C71.0986 9.7832 71.5293 9.47786 71.8984 9.08594C72.2721 8.69401 72.5638 8.236 72.7734 7.71191C72.9831 7.18783 73.0879 6.62272 73.0879 6.0166C73.0879 5.40592 72.9831 4.84082 72.7734 4.32129C72.5638 3.80176 72.2721 3.34831 71.8984 2.96094C71.5293 2.56901 71.0986 2.26595 70.6064 2.05176C70.1188 1.83301 69.5947 1.72363 69.0342 1.72363C68.4736 1.72363 67.9473 1.83301 67.4551 2.05176C66.9674 2.26595 66.5368 2.56901 66.1631 2.96094C65.7894 3.34831 65.4977 3.80176 65.2881 4.32129C65.0785 4.84082 64.9736 5.40592 64.9736 6.0166ZM64.1807 6.0166C64.1807 5.29199 64.306 4.61979 64.5566 4C64.8073 3.38021 65.1559 2.84017 65.6025 2.37988C66.0492 1.91504 66.5641 1.55501 67.1475 1.2998C67.7354 1.04004 68.3643 0.910156 69.0342 0.910156C69.7041 0.910156 70.3307 1.04004 70.9141 1.2998C71.502 1.55501 72.0169 1.91504 72.459 2.37988C72.9056 2.84017 73.2542 3.38021 73.5049 4C73.7555 4.61979 73.8809 5.29199 73.8809 6.0166C73.8809 6.74121 73.7555 7.41341 73.5049 8.0332C73.2542 8.65299 72.9056 9.19759 72.459 9.66699C72.0169 10.1318 71.502 10.4941 70.9141 10.7539C70.3307 11.0137 69.7041 11.1436 69.0342 11.1436C68.3643 11.1436 67.7354 11.0137 67.1475 10.7539C66.5641 10.4941 66.0492 10.1318 65.6025 9.66699C65.1559 9.19759 64.8073 8.65299 64.5566 8.0332C64.306 7.41341 64.1807 6.74121 64.1807 6.0166ZM81.9199 11H75.3916V10.0977L78.6523 6.46777C79.0579 6.02116 79.3701 5.6429 79.5889 5.33301C79.8122 5.01855 79.9671 4.736 80.0537 4.48535C80.1403 4.2347 80.1836 3.97949 80.1836 3.71973C80.1836 3.22754 80.0332 2.80827 79.7324 2.46191C79.4362 2.111 79.0124 1.93555 78.4609 1.93555C78.0143 1.93555 77.6429 2.02214 77.3467 2.19531C77.055 2.36849 76.8363 2.60775 76.6904 2.91309C76.5492 3.21842 76.4785 3.57161 76.4785 3.97266H75.2002C75.2002 3.41211 75.3232 2.89941 75.5693 2.43457C75.8154 1.96973 76.18 1.60059 76.6631 1.32715C77.1507 1.04915 77.75 0.910156 78.4609 0.910156C79.3997 0.910156 80.1335 1.15397 80.6621 1.6416C81.1953 2.12923 81.4619 2.77181 81.4619 3.56934C81.4619 3.96126 81.3776 4.35547 81.209 4.75195C81.0404 5.14844 80.8148 5.54264 80.5322 5.93457C80.2497 6.32194 79.9375 6.7002 79.5957 7.06934L76.9297 9.97461H81.9199V11ZM89.5146 6.75488C89.5146 7.83496 89.387 8.69629 89.1318 9.33887C88.8812 9.97689 88.5212 10.4372 88.0518 10.7197C87.5824 10.9977 87.0264 11.1367 86.3838 11.1367C85.7503 11.1367 85.1966 10.9977 84.7227 10.7197C84.2487 10.4372 83.8796 9.97689 83.6152 9.33887C83.3555 8.69629 83.2256 7.83496 83.2256 6.75488V5.23047C83.2256 4.14583 83.3532 3.28906 83.6084 2.66016C83.8682 2.03125 84.2327 1.58236 84.7021 1.31348C85.1761 1.0446 85.7321 0.910156 86.3701 0.910156C87.0127 0.910156 87.5687 1.0446 88.0381 1.31348C88.5075 1.58236 88.8698 2.03125 89.125 2.66016C89.3848 3.28906 89.5146 4.14583 89.5146 5.23047V6.75488ZM88.2363 5.01855C88.2363 4.27116 88.1657 3.67188 88.0244 3.2207C87.8831 2.76953 87.6735 2.44368 87.3955 2.24316C87.1175 2.03809 86.7757 1.93555 86.3701 1.93555C85.9691 1.93555 85.6296 2.03809 85.3516 2.24316C85.0736 2.44368 84.8617 2.76953 84.7158 3.2207C84.5745 3.67188 84.5039 4.27116 84.5039 5.01855V6.95312C84.5039 7.69596 84.5768 8.2998 84.7227 8.76465C84.8685 9.22949 85.0804 9.57129 85.3584 9.79004C85.641 10.0042 85.9827 10.1113 86.3838 10.1113C86.7939 10.1113 87.1357 10.0042 87.4092 9.79004C87.6826 9.57129 87.8877 9.22949 88.0244 8.76465C88.1657 8.2998 88.2363 7.69596 88.2363 6.95312V5.01855ZM97.6699 11H91.1416V10.0977L94.4023 6.46777C94.8079 6.02116 95.1201 5.6429 95.3389 5.33301C95.5622 5.01855 95.7171 4.736 95.8037 4.48535C95.8903 4.2347 95.9336 3.97949 95.9336 3.71973C95.9336 3.22754 95.7832 2.80827 95.4824 2.46191C95.1862 2.111 94.7624 1.93555 94.2109 1.93555C93.7643 1.93555 93.3929 2.02214 93.0967 2.19531C92.805 2.36849 92.5863 2.60775 92.4404 2.91309C92.2992 3.21842 92.2285 3.57161 92.2285 3.97266H90.9502C90.9502 3.41211 91.0732 2.89941 91.3193 2.43457C91.5654 1.96973 91.93 1.60059 92.4131 1.32715C92.9007 1.04915 93.5 0.910156 94.2109 0.910156C95.1497 0.910156 95.8835 1.15397 96.4121 1.6416C96.9453 2.12923 97.2119 2.77181 97.2119 3.56934C97.2119 3.96126 97.1276 4.35547 96.959 4.75195C96.7904 5.14844 96.5648 5.54264 96.2822 5.93457C95.9997 6.32194 95.6875 6.7002 95.3457 7.06934L92.6797 9.97461H97.6699V11ZM105.265 6.75488C105.265 7.83496 105.137 8.69629 104.882 9.33887C104.631 9.97689 104.271 10.4372 103.802 10.7197C103.332 10.9977 102.776 11.1367 102.134 11.1367C101.5 11.1367 100.947 10.9977 100.473 10.7197C99.9987 10.4372 99.6296 9.97689 99.3652 9.33887C99.1055 8.69629 98.9756 7.83496 98.9756 6.75488V5.23047C98.9756 4.14583 99.1032 3.28906 99.3584 2.66016C99.6182 2.03125 99.9827 1.58236 100.452 1.31348C100.926 1.0446 101.482 0.910156 102.12 0.910156C102.763 0.910156 103.319 1.0446 103.788 1.31348C104.257 1.58236 104.62 2.03125 104.875 2.66016C105.135 3.28906 105.265 4.14583 105.265 5.23047V6.75488ZM103.986 5.01855C103.986 4.27116 103.916 3.67188 103.774 3.2207C103.633 2.76953 103.424 2.44368 103.146 2.24316C102.868 2.03809 102.526 1.93555 102.12 1.93555C101.719 1.93555 101.38 2.03809 101.102 2.24316C100.824 2.44368 100.612 2.76953 100.466 3.2207C100.325 3.67188 100.254 4.27116 100.254 5.01855V6.95312C100.254 7.69596 100.327 8.2998 100.473 8.76465C100.618 9.22949 100.83 9.57129 101.108 9.79004C101.391 10.0042 101.733 10.1113 102.134 10.1113C102.544 10.1113 102.886 10.0042 103.159 9.79004C103.433 9.57129 103.638 9.22949 103.774 8.76465C103.916 8.2998 103.986 7.69596 103.986 6.95312V5.01855ZM111.096 11H109.729L113.529 1.04688H114.404L114.384 1.92188L111.096 11ZM113.837 1.92188L113.823 1.04688H114.691L118.499 11H117.139L113.837 1.92188ZM116.975 8.39551H111.376V7.32227H116.975V8.39551ZM121.028 11H119.75V0.5H121.028V11ZM124.433 11H123.154V0.5H124.433V11ZM131.2 11H129.922V3.60352H131.166L131.2 4.76562V11ZM133.504 4.73145C133.395 4.70866 133.292 4.69499 133.196 4.69043C133.105 4.68132 133 4.67676 132.882 4.67676C132.494 4.67676 132.166 4.75651 131.897 4.91602C131.633 5.07552 131.428 5.29655 131.282 5.5791C131.136 5.8571 131.045 6.17611 131.009 6.53613L130.646 6.74121C130.646 6.14421 130.726 5.59961 130.886 5.10742C131.045 4.61068 131.294 4.21419 131.631 3.91797C131.973 3.61719 132.41 3.4668 132.943 3.4668C133.03 3.4668 133.132 3.47819 133.251 3.50098C133.374 3.51921 133.458 3.53971 133.504 3.5625V4.73145ZM136.054 11H134.775V3.60352H136.054V11ZM134.68 1.63477C134.68 1.43424 134.741 1.26335 134.864 1.12207C134.992 0.980794 135.179 0.910156 135.425 0.910156C135.671 0.910156 135.858 0.980794 135.985 1.12207C136.118 1.26335 136.184 1.43424 136.184 1.63477C136.184 1.83073 136.118 1.99935 135.985 2.14062C135.858 2.27734 135.671 2.3457 135.425 2.3457C135.179 2.3457 134.992 2.27734 134.864 2.14062C134.741 1.99935 134.68 1.83073 134.68 1.63477ZM144.024 3.60352V10.8428C144.024 11.4945 143.89 12.0505 143.621 12.5107C143.357 12.971 142.988 13.3197 142.514 13.5566C142.044 13.7982 141.502 13.9189 140.887 13.9189C140.632 13.9189 140.331 13.8779 139.984 13.7959C139.643 13.7184 139.305 13.584 138.973 13.3926C138.645 13.2057 138.369 12.9528 138.146 12.6338L138.809 11.8887C139.118 12.2624 139.442 12.5221 139.779 12.668C140.121 12.8184 140.458 12.8936 140.791 12.8936C141.388 12.8936 141.862 12.7227 142.213 12.3809C142.568 12.0436 142.746 11.5514 142.746 10.9043V5.23047L142.862 3.60352H144.024ZM137.77 7.24023C137.77 6.48828 137.888 5.82975 138.125 5.26465C138.362 4.69499 138.699 4.25293 139.137 3.93848C139.574 3.62402 140.094 3.4668 140.695 3.4668C141.16 3.4668 141.566 3.54883 141.912 3.71289C142.263 3.8724 142.559 4.10482 142.801 4.41016C143.047 4.71549 143.241 5.08464 143.382 5.51758C143.528 5.95052 143.628 6.43815 143.683 6.98047V7.64355C143.614 8.35905 143.462 8.97884 143.225 9.50293C142.992 10.0225 142.666 10.4258 142.247 10.7129C141.828 10.9954 141.306 11.1367 140.682 11.1367C140.089 11.1367 139.574 10.9749 139.137 10.6514C138.704 10.3232 138.367 9.87663 138.125 9.31152C137.888 8.74642 137.77 8.10384 137.77 7.38379V7.24023ZM139.048 7.38379C139.048 7.87598 139.114 8.32487 139.246 8.73047C139.383 9.13607 139.595 9.46191 139.882 9.70801C140.169 9.94954 140.54 10.0703 140.996 10.0703C141.415 10.0703 141.759 9.98145 142.028 9.80371C142.297 9.62598 142.514 9.39128 142.678 9.09961C142.842 8.80794 142.969 8.49121 143.061 8.14941V6.48828C143.006 6.23763 142.928 5.99609 142.828 5.76367C142.728 5.52669 142.596 5.31706 142.432 5.13477C142.268 4.94792 142.067 4.7998 141.83 4.69043C141.598 4.58105 141.324 4.52637 141.01 4.52637C140.549 4.52637 140.174 4.64941 139.882 4.89551C139.595 5.1416 139.383 5.47201 139.246 5.88672C139.114 6.29688 139.048 6.74805 139.048 7.24023V7.38379ZM147.21 11H145.932V0.5H147.21V11ZM146.376 6.99414C146.385 6.31966 146.515 5.7181 146.766 5.18945C147.016 4.65625 147.365 4.23698 147.812 3.93164C148.263 3.62174 148.787 3.4668 149.384 3.4668C149.871 3.4668 150.291 3.55794 150.642 3.74023C150.997 3.91797 151.271 4.2028 151.462 4.59473C151.658 4.98665 151.756 5.50618 151.756 6.15332V11H150.478V6.13965C150.478 5.75228 150.421 5.4401 150.307 5.20312C150.197 4.96615 150.033 4.79525 149.814 4.69043C149.596 4.58105 149.327 4.52637 149.008 4.52637C148.693 4.52637 148.409 4.59245 148.153 4.72461C147.898 4.85677 147.677 5.03906 147.49 5.27148C147.303 5.50391 147.16 5.77051 147.06 6.07129C146.959 6.36751 146.909 6.68197 146.909 7.01465L146.376 6.99414ZM156.753 4.56738H152.747V3.60352H156.753V4.56738ZM155.372 1.80566V9.16797C155.372 9.42318 155.411 9.61458 155.488 9.74219C155.566 9.86979 155.666 9.9541 155.789 9.99512C155.912 10.0361 156.044 10.0566 156.186 10.0566C156.29 10.0566 156.4 10.0475 156.514 10.0293C156.632 10.0111 156.719 9.99512 156.773 9.98145L156.78 11C156.68 11.0319 156.548 11.0615 156.384 11.0889C156.224 11.1208 156.031 11.1367 155.803 11.1367C155.493 11.1367 155.208 11.0752 154.948 10.9521C154.688 10.8291 154.481 10.624 154.326 10.3369C154.171 10.0452 154.094 9.65332 154.094 9.16113V1.80566H155.372ZM162.529 9.03809C162.529 8.85579 162.488 8.68717 162.406 8.53223C162.329 8.37272 162.169 8.22917 161.928 8.10156C161.686 7.9694 161.322 7.85319 160.834 7.75293C160.287 7.639 159.813 7.49544 159.412 7.32227C159.016 7.14453 158.708 6.91895 158.489 6.64551C158.275 6.37207 158.168 6.03255 158.168 5.62695C158.168 5.23503 158.28 4.87728 158.503 4.55371C158.731 4.22559 159.05 3.96354 159.46 3.76758C159.875 3.56706 160.358 3.4668 160.909 3.4668C161.502 3.4668 162.007 3.57161 162.427 3.78125C162.851 3.98633 163.174 4.26432 163.397 4.61523C163.621 4.96159 163.732 5.34668 163.732 5.77051H162.454C162.454 5.46517 162.32 5.17578 162.051 4.90234C161.786 4.62891 161.406 4.49219 160.909 4.49219C160.563 4.49219 160.28 4.54688 160.062 4.65625C159.847 4.76107 159.69 4.89779 159.59 5.06641C159.494 5.23047 159.446 5.40365 159.446 5.58594C159.446 5.76823 159.492 5.92773 159.583 6.06445C159.674 6.19661 159.84 6.3151 160.082 6.41992C160.328 6.52474 160.684 6.62956 161.148 6.73438C161.755 6.87109 162.254 7.03516 162.646 7.22656C163.037 7.41797 163.329 7.65267 163.521 7.93066C163.712 8.20866 163.808 8.54818 163.808 8.94922C163.808 9.3776 163.689 9.75814 163.452 10.0908C163.215 10.4189 162.882 10.6764 162.454 10.8633C162.026 11.0456 161.522 11.1367 160.943 11.1367C160.292 11.1367 159.74 11.0205 159.289 10.7881C158.838 10.5557 158.496 10.2572 158.264 9.89258C158.031 9.52344 157.915 9.13379 157.915 8.72363H159.193C159.216 9.06999 159.316 9.3457 159.494 9.55078C159.676 9.7513 159.897 9.89486 160.157 9.98145C160.422 10.068 160.684 10.1113 160.943 10.1113C161.29 10.1113 161.579 10.0658 161.812 9.97461C162.049 9.87891 162.226 9.7513 162.345 9.5918C162.468 9.42773 162.529 9.24316 162.529 9.03809ZM170.206 11H168.928V3.60352H170.172L170.206 4.76562V11ZM172.51 4.73145C172.4 4.70866 172.298 4.69499 172.202 4.69043C172.111 4.68132 172.006 4.67676 171.888 4.67676C171.5 4.67676 171.172 4.75651 170.903 4.91602C170.639 5.07552 170.434 5.29655 170.288 5.5791C170.142 5.8571 170.051 6.17611 170.015 6.53613L169.652 6.74121C169.652 6.14421 169.732 5.59961 169.892 5.10742C170.051 4.61068 170.299 4.21419 170.637 3.91797C170.979 3.61719 171.416 3.4668 171.949 3.4668C172.036 3.4668 172.138 3.47819 172.257 3.50098C172.38 3.51921 172.464 3.53971 172.51 3.5625V4.73145ZM176.748 11.1367C176.06 11.1367 175.461 10.984 174.95 10.6787C174.444 10.3688 174.05 9.94499 173.768 9.40723C173.49 8.86947 173.351 8.25423 173.351 7.56152V7.26758C173.351 6.46549 173.503 5.7819 173.809 5.2168C174.118 4.64714 174.52 4.21419 175.012 3.91797C175.508 3.61719 176.033 3.4668 176.584 3.4668C177.295 3.4668 177.874 3.6263 178.32 3.94531C178.771 4.25977 179.102 4.69043 179.312 5.2373C179.526 5.77962 179.633 6.39486 179.633 7.08301V7.65039H174.109V6.625H178.354V6.5293C178.336 6.20117 178.27 5.88216 178.156 5.57227C178.042 5.25781 177.86 5.00033 177.609 4.7998C177.359 4.59473 177.017 4.49219 176.584 4.49219C176.201 4.49219 175.862 4.60156 175.565 4.82031C175.274 5.03451 175.044 5.34896 174.875 5.76367C174.711 6.17383 174.629 6.67513 174.629 7.26758V7.56152C174.629 8.03092 174.715 8.45931 174.889 8.84668C175.062 9.22949 175.312 9.53711 175.641 9.76953C175.969 9.9974 176.361 10.1113 176.816 10.1113C177.263 10.1113 177.641 10.0202 177.951 9.83789C178.261 9.6556 178.532 9.41178 178.765 9.10645L179.537 9.70801C179.3 10.0726 178.958 10.403 178.512 10.6992C178.07 10.9909 177.482 11.1367 176.748 11.1367ZM185.416 9.03809C185.416 8.85579 185.375 8.68717 185.293 8.53223C185.215 8.37272 185.056 8.22917 184.814 8.10156C184.573 7.9694 184.208 7.85319 183.721 7.75293C183.174 7.639 182.7 7.49544 182.299 7.32227C181.902 7.14453 181.595 6.91895 181.376 6.64551C181.162 6.37207 181.055 6.03255 181.055 5.62695C181.055 5.23503 181.166 4.87728 181.39 4.55371C181.618 4.22559 181.937 3.96354 182.347 3.76758C182.761 3.56706 183.244 3.4668 183.796 3.4668C184.388 3.4668 184.894 3.57161 185.313 3.78125C185.737 3.98633 186.061 4.26432 186.284 4.61523C186.507 4.96159 186.619 5.34668 186.619 5.77051H185.341C185.341 5.46517 185.206 5.17578 184.938 4.90234C184.673 4.62891 184.293 4.49219 183.796 4.49219C183.45 4.49219 183.167 4.54688 182.948 4.65625C182.734 4.76107 182.577 4.89779 182.477 5.06641C182.381 5.23047 182.333 5.40365 182.333 5.58594C182.333 5.76823 182.379 5.92773 182.47 6.06445C182.561 6.19661 182.727 6.3151 182.969 6.41992C183.215 6.52474 183.57 6.62956 184.035 6.73438C184.641 6.87109 185.14 7.03516 185.532 7.22656C185.924 7.41797 186.216 7.65267 186.407 7.93066C186.599 8.20866 186.694 8.54818 186.694 8.94922C186.694 9.3776 186.576 9.75814 186.339 10.0908C186.102 10.4189 185.769 10.6764 185.341 10.8633C184.912 11.0456 184.409 11.1367 183.83 11.1367C183.178 11.1367 182.627 11.0205 182.176 10.7881C181.725 10.5557 181.383 10.2572 181.15 9.89258C180.918 9.52344 180.802 9.13379 180.802 8.72363H182.08C182.103 9.06999 182.203 9.3457 182.381 9.55078C182.563 9.7513 182.784 9.89486 183.044 9.98145C183.308 10.068 183.57 10.1113 183.83 10.1113C184.176 10.1113 184.466 10.0658 184.698 9.97461C184.935 9.87891 185.113 9.7513 185.231 9.5918C185.354 9.42773 185.416 9.24316 185.416 9.03809ZM191.418 11.1367C190.73 11.1367 190.131 10.984 189.62 10.6787C189.114 10.3688 188.72 9.94499 188.438 9.40723C188.16 8.86947 188.021 8.25423 188.021 7.56152V7.26758C188.021 6.46549 188.173 5.7819 188.479 5.2168C188.788 4.64714 189.189 4.21419 189.682 3.91797C190.178 3.61719 190.702 3.4668 191.254 3.4668C191.965 3.4668 192.544 3.6263 192.99 3.94531C193.441 4.25977 193.772 4.69043 193.981 5.2373C194.196 5.77962 194.303 6.39486 194.303 7.08301V7.65039H188.779V6.625H193.024V6.5293C193.006 6.20117 192.94 5.88216 192.826 5.57227C192.712 5.25781 192.53 5.00033 192.279 4.7998C192.029 4.59473 191.687 4.49219 191.254 4.49219C190.871 4.49219 190.532 4.60156 190.235 4.82031C189.944 5.03451 189.714 5.34896 189.545 5.76367C189.381 6.17383 189.299 6.67513 189.299 7.26758V7.56152C189.299 8.03092 189.385 8.45931 189.559 8.84668C189.732 9.22949 189.982 9.53711 190.311 9.76953C190.639 9.9974 191.031 10.1113 191.486 10.1113C191.933 10.1113 192.311 10.0202 192.621 9.83789C192.931 9.6556 193.202 9.41178 193.435 9.10645L194.207 9.70801C193.97 10.0726 193.628 10.403 193.182 10.6992C192.74 10.9909 192.152 11.1367 191.418 11.1367ZM197.058 11H195.779V3.60352H197.023L197.058 4.76562V11ZM199.361 4.73145C199.252 4.70866 199.149 4.69499 199.054 4.69043C198.963 4.68132 198.858 4.67676 198.739 4.67676C198.352 4.67676 198.024 4.75651 197.755 4.91602C197.491 5.07552 197.285 5.29655 197.14 5.5791C196.994 5.8571 196.903 6.17611 196.866 6.53613L196.504 6.74121C196.504 6.14421 196.584 5.59961 196.743 5.10742C196.903 4.61068 197.151 4.21419 197.488 3.91797C197.83 3.61719 198.268 3.4668 198.801 3.4668C198.887 3.4668 198.99 3.47819 199.108 3.50098C199.231 3.51921 199.316 3.53971 199.361 3.5625V4.73145ZM204.912 3.60352H206.218L203.565 11H202.704L202.902 9.86523L204.912 3.60352ZM203.299 9.89941L203.449 11H202.595L199.915 3.60352H201.221L203.299 9.89941ZM210.518 11.1367C209.829 11.1367 209.23 10.984 208.72 10.6787C208.214 10.3688 207.82 9.94499 207.537 9.40723C207.259 8.86947 207.12 8.25423 207.12 7.56152V7.26758C207.12 6.46549 207.273 5.7819 207.578 5.2168C207.888 4.64714 208.289 4.21419 208.781 3.91797C209.278 3.61719 209.802 3.4668 210.354 3.4668C211.064 3.4668 211.643 3.6263 212.09 3.94531C212.541 4.25977 212.871 4.69043 213.081 5.2373C213.295 5.77962 213.402 6.39486 213.402 7.08301V7.65039H207.879V6.625H212.124V6.5293C212.106 6.20117 212.04 5.88216 211.926 5.57227C211.812 5.25781 211.63 5.00033 211.379 4.7998C211.128 4.59473 210.786 4.49219 210.354 4.49219C209.971 4.49219 209.631 4.60156 209.335 4.82031C209.043 5.03451 208.813 5.34896 208.645 5.76367C208.48 6.17383 208.398 6.67513 208.398 7.26758V7.56152C208.398 8.03092 208.485 8.45931 208.658 8.84668C208.831 9.22949 209.082 9.53711 209.41 9.76953C209.738 9.9974 210.13 10.1113 210.586 10.1113C211.033 10.1113 211.411 10.0202 211.721 9.83789C212.031 9.6556 212.302 9.41178 212.534 9.10645L213.307 9.70801C213.07 10.0726 212.728 10.403 212.281 10.6992C211.839 10.9909 211.251 11.1367 210.518 11.1367ZM219.541 0.5H220.819V11H219.65L219.541 9.56445V0.5ZM214.571 7.24023C214.571 6.48828 214.692 5.82975 214.934 5.26465C215.18 4.69499 215.521 4.25293 215.959 3.93848C216.396 3.62402 216.909 3.4668 217.497 3.4668C218.117 3.4668 218.634 3.61035 219.049 3.89746C219.464 4.18001 219.787 4.58333 220.02 5.10742C220.257 5.63151 220.409 6.25586 220.478 6.98047V7.64355C220.409 8.35905 220.259 8.97884 220.026 9.50293C219.794 10.0225 219.468 10.4258 219.049 10.7129C218.634 10.9954 218.112 11.1367 217.483 11.1367C216.905 11.1367 216.396 10.9749 215.959 10.6514C215.521 10.3232 215.18 9.87663 214.934 9.31152C214.692 8.74642 214.571 8.10384 214.571 7.38379V7.24023ZM215.85 7.38379C215.85 7.87598 215.916 8.32487 216.048 8.73047C216.185 9.13607 216.396 9.46191 216.684 9.70801C216.971 9.94954 217.342 10.0703 217.798 10.0703C218.217 10.0703 218.561 9.98145 218.83 9.80371C219.104 9.62598 219.322 9.39128 219.486 9.09961C219.65 8.80794 219.778 8.49121 219.869 8.14941V6.48828C219.814 6.23763 219.735 5.99609 219.63 5.76367C219.53 5.52669 219.397 5.31706 219.233 5.13477C219.074 4.94792 218.876 4.7998 218.639 4.69043C218.406 4.58105 218.131 4.52637 217.812 4.52637C217.351 4.52637 216.975 4.64941 216.684 4.89551C216.396 5.1416 216.185 5.47201 216.048 5.88672C215.916 6.29688 215.85 6.74805 215.85 7.24023V7.38379Z" fill="#21243D"/>
</svg>
